<?xml version="1.0" encoding="utf-8"?>
<!-- Generator: Adobe Illustrator 18.1.0, SVG Export Plug-In . SVG Version: 6.00 Build 0)  -->
<svg version="1.1" id="Layer_1" xmlns="http://www.w3.org/2000/svg" xmlns:xlink="http://www.w3.org/1999/xlink" x="0px" y="0px"
	 viewBox="0 0 280 62" enable-background="new 0 0 280 62" xml:space="preserve">
<g>
	<path fill="#503629" d="M27.8,8.2H12.2v1.3h5v25.8c0,7.7-2.2,9.9-7,9.9c-1.8,0.2-3.4-1.1-3.6-2.9c0-0.2,0-0.4,0-0.6
		c0-2.8-0.2-4.5-2.7-4.5S1,39.8,1,40.6c0,3.6,1.6,6.3,8.7,6.3c8.5,0,13-2.8,13-12.3V9.5h5.2L27.8,8.2z"/>
	<path fill="#503629" d="M29.8,40.8c-0.8,0-1.6,0.3-2.2,0.9c-0.6,0.6-0.9,1.4-0.9,2.2c0,0.8,0.3,1.6,0.9,2.1
		c0.6,0.6,1.4,0.9,2.2,0.9c0.8,0,1.6-0.3,2.2-0.9c0.6-0.6,0.9-1.3,0.9-2.1c0-1.7-1.3-3-3-3c0,0,0,0,0,0H29.8"/>
	<path fill="#503629" d="M64.5,40.8c-1.6,0-3,1.3-3.1,2.9c0,0,0,0,0,0v0.1c0,0.8,0.4,1.6,1,2.1c0.6,0.6,1.4,0.9,2.2,0.9
		c0.8,0,1.6-0.3,2.2-0.9c0.6-0.5,0.9-1.3,0.9-2.1c0-0.8-0.3-1.6-0.9-2.2c-0.6-0.6-1.3-0.9-2.1-0.9"/>
	<path fill="#503629" d="M53.7,8.2H38.3v1.3h4.5v29.4c0.1,1.2,0,2.4-0.4,3.6c-0.4,0.8-1.1,1.5-1.9,1.7c-0.9,0.3-1.9,0.5-2.9,0.5v1.2
		h16.3v-1.2c-1.1,0-2.1-0.1-3.1-0.4c-0.9-0.3-1.6-0.9-1.9-1.7c-0.3-0.8-0.5-1.6-0.4-2.4V30h4.1c11.8,0,15.1-4.7,15.1-11
		S65.6,8.2,53.7,8.2 M51.5,28.5h-3.1V9.7h2.8c9.1,0,11.3,3.7,11.3,9.7s-3.6,9.3-10.8,9.3"/>
	<path fill="#503629" d="M116.4,42.4c-0.3-0.8-0.4-1.7-0.3-2.6V9.5h4.1V8.3h-9.7L98.7,37c0,0.1-0.1,0.2-0.2,0.2
		c-0.1,0-0.2-0.1-0.3-0.2c0,0-12.2-28.4-12.3-28.7H75.1v1.2h4.7v31.9c0,0.7-0.3,1.3-0.6,1.9c-0.4,0.6-1,1-1.7,1.2
		c-0.7,0.2-1.5,0.2-2.2,0.2v1.2h10.7v-1.2c-0.7,0-1.3-0.1-1.9-0.3c-0.8-0.2-1.4-0.6-1.9-1.2c-0.4-0.6-0.6-1.2-0.7-1.9l-0.1-2.7V13.4
		h0.6c0,0,13.9,32.1,13.9,32.5h1.3l13.1-32.2h0.3v25.9c0,0.9-0.1,1.8-0.3,2.7c-0.3,0.8-0.9,1.4-1.6,1.7c-0.9,0.3-1.8,0.5-2.7,0.5
		v1.2h14.9v-1.2c-0.9,0-1.9-0.2-2.8-0.5c-0.8-0.4-1.4-1.1-1.7-1.9"/>
	<path fill="#503629" d="M136.5,18.3c-8,0-13,5.2-13,14.4c0,13.5,10.5,14.3,12.8,14.3c4.5,0,13-2.8,13-14.6
		C149.2,23.2,143.8,18.3,136.5,18.3 M136.4,45.3c-6,0-6.9-3-6.9-12.5c0-7.4,0.5-13,6.9-13c6.9,0,7,5.8,7,12.4
		C143.4,41.9,141.7,45.3,136.4,45.3"/>
	<path fill="#503629" d="M170.1,18.7c-4.8,0-6.2,2.8-7.6,5.7h-0.4c0,0-0.7-4.1-0.9-5.4h-9.3v1.4h5v18.7c0.1,1.3-0.1,2.6-0.6,3.8
		c-0.5,0.9-1.7,1.4-3.5,1.4h-0.8V46h15.4v-1.7h-0.7c-2,0-2.9-0.4-3.4-1.3c-0.5-1.2-0.8-2.6-0.6-3.9v-9.7c0-3.2,2.5-7,5.4-7
		c3,0,3,4.7,6.5,2.8C176.4,24.1,176,18.7,170.1,18.7"/>
	<path fill="#503629" d="M231.6,43.1c-1.7,0-2.2-0.9-2.3-2.4V25.9c0.2-2-0.5-4.1-1.9-5.6c-1.4-1.4-4.2-2.2-8.2-2.2
		c-3-0.2-5.9,0.5-8.5,2.1c-1.5,0.9-2.4,2.6-2.4,4.3c-0.1,0.7,0.2,1.4,0.7,1.9c0.5,0.4,1.1,0.6,1.7,0.6c1.5,0,2.4-0.8,2.7-2.8
		c0-1.2,0.5-2.3,1.2-3.2c1-0.9,2.4-1.4,3.7-1.2c1.5-0.2,3.1,0.4,4.1,1.6c0.8,1.2,1.1,2.5,1.1,3.9V30c-4.9,0.4-16.6,1.4-16.1,10.2
		c0.4,3.7,3.6,6.5,7.3,6.4c3.5-0.1,6.8-1.7,9-4.5c0.5,2.5,2.7,4.2,5.2,4.1c3.6,0,5.8-1.8,6-6.1H234
		C233.8,42.1,232.6,43.1,231.6,43.1 M223.5,40.2c0,0.1,0,0.1,0,0.2v0.1c-1.6,1.8-3.8,2.9-6.2,3.2c-2.3,0.1-4.3-1.7-4.4-4.1
		c0,0,0,0,0,0c0-0.2,0-0.4,0-0.6c0-5,6.9-7.5,10.7-7.5L223.5,40.2z"/>
	<path fill="#503629" d="M263.2,42.9c-0.7-1.2-1-2.6-1-4V26.7c0.1-1.6-0.2-3.1-0.9-4.5c-0.6-1.1-1.6-2.1-2.7-2.7
		c-1.3-0.6-2.7-0.9-4.1-0.9c-3.7-0.1-7.1,1.9-8.8,5.2h-0.6l-1-4.9h-8.3v1.4h4.2v18.6c0,1.1-0.1,2.1-0.3,3.2
		c-0.2,0.8-0.8,1.5-1.6,1.7c-0.7,0.3-1.5,0.4-2.3,0.4v1.7h13.3v-1.7c-1,0.1-2-0.4-2.7-1.1c-0.6-1.2-0.9-2.5-0.7-3.8v-7.1
		c-0.3-2.6,0.1-5.2,1-7.7c1.1-1.9,3.2-3.1,5.4-3c1.5-0.2,3,0.6,3.7,1.9c0.7,2,1,4.2,0.9,6.3v8.8c0.1,1.1,0.1,2.2,0,3.3
		c-0.1,0.8-0.5,1.5-1.2,1.9c-0.7,0.4-1.4,0.6-2.1,0.6v1.7h12.9v-1.7C264.7,44.1,263.7,43.7,263.2,42.9"/>
	<path fill="#503629" d="M202.9,17.2c-0.9,0.4-1.5,1.2-1.6,2.1c-0.2,1.1-0.6,1.7-1.2,1.9c-0.6,0.2-1.3,0.1-1.9-0.1
		c-2.4-2.1-5.6-3.1-8.7-2.9c-5.5-0.4-10.4,3.7-10.8,9.2c0,0.4,0,0.8,0,1.2c0,5.8,2.2,8.4,7,9.5c0.3,0,0.3,0.4,0,0.4
		c-4.1,0.7-7.7,1.9-7.7,5.9c0,1.9,1.2,3.6,3,4.2c2.6,0.9,5.3,1.3,8,1.2c2.1,0,4.3,0.1,6.4,0.3c1.2,0.1,2.4,0.5,3.5,1.2
		c0.9,0.8,1.4,1.9,1.3,3.1c0,1.9-1.2,3.6-2.9,4.3c-2.3,1.1-4.8,1.6-7.3,1.5c-2.3,0.2-4.7-0.3-6.7-1.5c-1.2-0.9-1.8-2.4-1.4-3.8
		c0.4-1.1-0.2-2.4-1.4-2.8h-0.3c-0.9-0.1-1.8,0.3-2.3,1c-0.4,0.7-0.7,1.6-0.6,2.5c0.1,2.6,1.9,4.7,4.5,5.2c2.4,0.8,4.9,1.1,7.4,1.1
		c2.9,0.1,5.8-0.4,8.5-1.6c3.2-1.4,5.4-4.5,5.4-8c0.1-1.7-0.4-3.3-1.3-4.7c-2.7-3.7-6.5-3.2-15.1-3.6c-4.1,0-4.9-0.7-4.9-1.9
		c0-1.9,1.5-2.6,7.4-3.5c5.9-0.9,11.4-3.1,11.4-10.2c0-1.7-0.3-3.5-1.1-5.1c1.1,0.3,2.3,0.3,3.4,0c1-0.3,1.9-1,2.4-1.9
		c0.5-0.7,0.7-1.7,0.5-2.5C205.3,17.4,204.3,16.8,202.9,17.2 M189.6,36.9c-3.5,0-5.6-1.3-5.6-8.4c0-5,1.7-8.7,5.6-8.7
		c4.4,0,5.6,3.4,5.6,8.6C195.1,35.8,192.8,36.9,189.6,36.9"/>
</g>
</svg>
